{
	"asset":{
		"generator":"Khronos glTF Blender I/O v4.4.55",
		"version":"2.0"
	},
	"extensionsUsed":[
		"KHR_lights_punctual"
	],
	"extensionsRequired":[
		"KHR_lights_punctual"
	],
	"extensions":{
		"KHR_lights_punctual":{
			"lights":[
				{
					"color":[
						1,
						1,
						1
					],
					"intensity":54.35141306588226,
					"type":"point",
					"name":"Spot"
				}
			]
		}
	},
	"scene":0,
	"scenes":[
		{
			"name":"Scene",
			"nodes":[
				0,
				1,
				2,
				3,
				4,
				5,
				6,
				7
			]
		}
	],
	"nodes":[
		{
			"mesh":0,
			"name":"Cube",
			"rotation":[
				0,
				1,
				0,
				0
			],
			"scale":[
				15.217747688293457,
				0.24359475076198578,
				14.560510635375977
			]
		},
		{
			"camera":0,
			"name":"Camera",
			"rotation":[
				-0.1796053647994995,
				0.564313530921936,
				0.12738417088985443,
				0.7956541180610657
			],
			"translation":[
				32.90888977050781,
				17.62830924987793,
				10.265790939331055
			]
		},
		{
			"mesh":1,
			"name":"Sphere.002",
			"translation":[
				2.068204879760742,
				2.3514914512634277,
				1.558828353881836
			]
		},
		{
			"mesh":2,
			"name":"Sphere.004",
			"translation":[
				1.8297438621520996,
				2.3514914512634277,
				-7.853323936462402
			]
		},
		{
			"mesh":3,
			"name":"Sphere.005",
			"translation":[
				8.976985931396484,
				2.3514914512634277,
				-7.853323936462402
			]
		},
		{
			"mesh":4,
			"name":"Sphere.006",
			"translation":[
				-4.419424057006836,
				2.3514914512634277,
				0.37069082260131836
			]
		},
		{
			"extensions":{
				"KHR_lights_punctual":{
					"light":0
				}
			},
			"name":"Sun",
			"rotation":[
				0,
				0.7071068286895752,
				0,
				0.7071068286895752
			],
			"translation":[
				5.862268924713135,
				4.406862258911133,
				-15.243334770202637
			]
		},
		{
			"mesh":5,
			"name":"Sphere.003",
			"translation":[
				-4.813278675079346,
				2.3514914512634277,
				-7.853323936462402
			]
		}
	],
	"cameras":[
		{
			"name":"Camera",
			"perspective":{
				"aspectRatio":1.7777777777777777,
				"yfov":0.39959652046304894,
				"zfar":100,
				"znear":0.10000000149011612
			},
			"type":"perspective"
		}
	],
	"materials":[
		{
			"doubleSided":true,
			"name":"PlaneMaterial",
			"normalTexture":{
				"index":0
			},
			"pbrMetallicRoughness":{
				"baseColorTexture":{
					"index":1
				},
				"metallicRoughnessTexture":{
					"index":2
				}
			}
		},
		{
			"doubleSided":true,
			"name":"Rocks",
			"normalTexture":{
				"index":3
			},
			"pbrMetallicRoughness":{
				"baseColorTexture":{
					"index":4
				},
				"metallicRoughnessTexture":{
					"index":5
				}
			}
		},
		{
			"doubleSided":true,
			"name":"Hex",
			"normalTexture":{
				"index":6
			},
			"pbrMetallicRoughness":{
				"baseColorTexture":{
					"index":7
				},
				"metallicRoughnessTexture":{
					"index":8
				}
			}
		},
		{
			"doubleSided":true,
			"name":"titanium",
			"normalTexture":{
				"index":9
			},
			"pbrMetallicRoughness":{
				"baseColorTexture":{
					"index":10
				},
				"metallicRoughnessTexture":{
					"index":11
				}
			}
		},
		{
			"doubleSided":true,
			"name":"MetalCubes",
			"normalTexture":{
				"index":12
			},
			"pbrMetallicRoughness":{
				"baseColorTexture":{
					"index":13
				},
				"metallicRoughnessTexture":{
					"index":14
				}
			}
		},
		{
			"doubleSided":true,
			"name":"Material",
			"normalTexture":{
				"index":15
			},
			"pbrMetallicRoughness":{
				"baseColorTexture":{
					"index":16
				},
				"metallicRoughnessTexture":{
					"index":17
				}
			}
		}
	],
	"meshes":[
		{
			"name":"Cube",
			"primitives":[
				{
					"attributes":{
						"POSITION":0,
						"NORMAL":1,
						"TEXCOORD_0":2
					},
					"indices":3,
					"material":0
				}
			]
		},
		{
			"name":"Sphere.002",
			"primitives":[
				{
					"attributes":{
						"POSITION":4,
						"NORMAL":5,
						"TEXCOORD_0":6
					},
					"indices":7,
					"material":1
				}
			]
		},
		{
			"name":"Sphere.004",
			"primitives":[
				{
					"attributes":{
						"POSITION":8,
						"NORMAL":9,
						"TEXCOORD_0":10
					},
					"indices":7,
					"material":2
				}
			]
		},
		{
			"name":"Sphere.005",
			"primitives":[
				{
					"attributes":{
						"POSITION":11,
						"NORMAL":12,
						"TEXCOORD_0":13
					},
					"indices":7,
					"material":3
				}
			]
		},
		{
			"name":"Sphere.006",
			"primitives":[
				{
					"attributes":{
						"POSITION":14,
						"NORMAL":15,
						"TEXCOORD_0":16
					},
					"indices":7,
					"material":4
				}
			]
		},
		{
			"name":"Sphere.007",
			"primitives":[
				{
					"attributes":{
						"POSITION":17,
						"NORMAL":18,
						"TEXCOORD_0":19
					},
					"indices":7,
					"material":5
				}
			]
		}
	],
	"textures":[
		{
			"sampler":0,
			"source":0
		},
		{
			"sampler":0,
			"source":1
		},
		{
			"sampler":0,
			"source":2
		},
		{
			"sampler":0,
			"source":3
		},
		{
			"sampler":0,
			"source":4
		},
		{
			"sampler":0,
			"source":5
		},
		{
			"sampler":0,
			"source":6
		},
		{
			"sampler":0,
			"source":7
		},
		{
			"sampler":0,
			"source":8
		},
		{
			"sampler":0,
			"source":9
		},
		{
			"sampler":0,
			"source":10
		},
		{
			"sampler":0,
			"source":11
		},
		{
			"sampler":0,
			"source":12
		},
		{
			"sampler":0,
			"source":13
		},
		{
			"sampler":0,
			"source":14
		},
		{
			"sampler":0,
			"source":15
		},
		{
			"sampler":0,
			"source":16
		},
		{
			"sampler":0,
			"source":17
		}
	],
	"images":[
		{
			"mimeType":"image/png",
			"name":"gray-granite-flecks-Normal-ogl.png.001",
			"uri":"gray-granite-flecks-bl/gray-granite-flecks-Normal-ogl.png"
		},
		{
			"mimeType":"image/png",
			"name":"gray-granite-flecks-albedo.png.001",
			"uri":"gray-granite-flecks-bl/gray-granite-flecks-albedo.png"
		},
		{
			"mimeType":"image/png",
			"name":"gray-granite-flecks-Roughness.png.001",
			"uri":"gray-granite-flecks-bl/gray-granite-flecks-Roughness.png"
		},
		{
			"mimeType":"image/png",
			"name":"gray-granite-flecks-Normal-ogl.png",
			"uri":"gray-granite-flecks-bl/gray-granite-flecks-Normal-ogl.png"
		},
		{
			"mimeType":"image/png",
			"name":"gray-granite-flecks-albedo.png",
			"uri":"gray-granite-flecks-bl/gray-granite-flecks-albedo.png"
		},
		{
			"mimeType":"image/png",
			"name":"gray-granite-flecks-Roughness.png",
			"uri":"gray-granite-flecks-bl/gray-granite-flecks-Roughness.png"
		},
		{
			"mimeType":"image/jpeg",
			"name":"ChristmasTreeOrnament008_2K-JPG_NormalGL.jpg",
			"uri":"ChristmasTreeOrnament008_2K-JPG/ChristmasTreeOrnament008_2K-JPG_NormalGL.jpg"
		},
		{
			"mimeType":"image/jpeg",
			"name":"ChristmasTreeOrnament008_2K-JPG_Color.jpg",
			"uri":"ChristmasTreeOrnament008_2K-JPG/ChristmasTreeOrnament008_2K-JPG_Color.jpg"
		},
		{
			"mimeType":"image/jpeg",
			"name":"ChristmasTreeOrnament008_2K-JPG_Roughness.jpg",
			"uri":"ChristmasTreeOrnament008_2K-JPG/ChristmasTreeOrnament008_2K-JPG_Roughness.jpg"
		},
		{
			"mimeType":"image/png",
			"name":"rustediron2_normal.png",
			"uri":"rustediron1-alt2-bl/rustediron2_normal.png"
		},
		{
			"mimeType":"image/png",
			"name":"rustediron2_basecolor.png",
			"uri":"rustediron1-alt2-bl/rustediron2_basecolor.png"
		},
		{
			"mimeType":"image/png",
			"name":"rustediron2_roughness.png",
			"uri":"rustediron1-alt2-bl/rustediron2_roughness.png"
		},
		{
			"mimeType":"image/jpeg",
			"name":"Metal049A_2K-JPG_NormalGL.jpg",
			"uri":"Metal049A_2K-JPG/Metal049A_2K-JPG_NormalGL.jpg"
		},
		{
			"mimeType":"image/jpeg",
			"name":"Metal049A_2K-JPG_Color.jpg",
			"uri":"Metal049A_2K-JPG/Metal049A_2K-JPG_Color.jpg"
		},
		{
			"mimeType":"image/jpeg",
			"name":"Metal049A_2K-JPG_Roughness.jpg",
			"uri":"Metal049A_2K-JPG/Metal049A_2K-JPG_Roughness.jpg"
		},
		{
			"mimeType":"image/png",
			"name":"copper-rock1-normal.png",
			"uri":"copper-rock1-bl/copper-rock1-bl/copper-rock1-normal.png"
		},
		{
			"mimeType":"image/png",
			"name":"copper-rock1-albedo.png",
			"uri":"copper-rock1-bl/copper-rock1-bl/copper-rock1-albedo.png"
		},
		{
			"mimeType":"image/png",
			"name":"copper-rock1-rough.png",
			"uri":"copper-rock1-bl/copper-rock1-bl/copper-rock1-rough.png"
		}
	],
	"accessors":[
		{
			"bufferView":0,
			"componentType":5126,
			"count":14,
			"max":[
				1,
				1,
				1
			],
			"min":[
				-1,
				-1,
				-1
			],
			"type":"VEC3"
		},
		{
			"bufferView":1,
			"componentType":5126,
			"count":14,
			"type":"VEC3"
		},
		{
			"bufferView":2,
			"componentType":5126,
			"count":14,
			"type":"VEC2"
		},
		{
			"bufferView":3,
			"componentType":5123,
			"count":36,
			"type":"SCALAR"
		},
		{
			"bufferView":4,
			"componentType":5126,
			"count":559,
			"max":[
				0.9999997019767761,
				1,
				0.9999993443489075
			],
			"min":[
				-0.9999990463256836,
				-1,
				-1
			],
			"type":"VEC3"
		},
		{
			"bufferView":5,
			"componentType":5126,
			"count":559,
			"type":"VEC3"
		},
		{
			"bufferView":6,
			"componentType":5126,
			"count":559,
			"type":"VEC2"
		},
		{
			"bufferView":7,
			"componentType":5123,
			"count":2880,
			"type":"SCALAR"
		},
		{
			"bufferView":8,
			"componentType":5126,
			"count":559,
			"max":[
				0.9999997019767761,
				1,
				0.9999993443489075
			],
			"min":[
				-0.9999990463256836,
				-1,
				-1
			],
			"type":"VEC3"
		},
		{
			"bufferView":9,
			"componentType":5126,
			"count":559,
			"type":"VEC3"
		},
		{
			"bufferView":10,
			"componentType":5126,
			"count":559,
			"type":"VEC2"
		},
		{
			"bufferView":11,
			"componentType":5126,
			"count":559,
			"max":[
				0.9999997019767761,
				1,
				0.9999993443489075
			],
			"min":[
				-0.9999990463256836,
				-1,
				-1
			],
			"type":"VEC3"
		},
		{
			"bufferView":12,
			"componentType":5126,
			"count":559,
			"type":"VEC3"
		},
		{
			"bufferView":13,
			"componentType":5126,
			"count":559,
			"type":"VEC2"
		},
		{
			"bufferView":14,
			"componentType":5126,
			"count":559,
			"max":[
				0.9999997019767761,
				1,
				0.9999993443489075
			],
			"min":[
				-0.9999990463256836,
				-1,
				-1
			],
			"type":"VEC3"
		},
		{
			"bufferView":15,
			"componentType":5126,
			"count":559,
			"type":"VEC3"
		},
		{
			"bufferView":16,
			"componentType":5126,
			"count":559,
			"type":"VEC2"
		},
		{
			"bufferView":17,
			"componentType":5126,
			"count":559,
			"max":[
				0.9999997019767761,
				1,
				0.9999993443489075
			],
			"min":[
				-0.9999990463256836,
				-1,
				-1
			],
			"type":"VEC3"
		},
		{
			"bufferView":18,
			"componentType":5126,
			"count":559,
			"type":"VEC3"
		},
		{
			"bufferView":19,
			"componentType":5126,
			"count":559,
			"type":"VEC2"
		}
	],
	"bufferViews":[
		{
			"buffer":0,
			"byteLength":168,
			"byteOffset":0,
			"target":34962
		},
		{
			"buffer":0,
			"byteLength":168,
			"byteOffset":168,
			"target":34962
		},
		{
			"buffer":0,
			"byteLength":112,
			"byteOffset":336,
			"target":34962
		},
		{
			"buffer":0,
			"byteLength":72,
			"byteOffset":448,
			"target":34963
		},
		{
			"buffer":0,
			"byteLength":6708,
			"byteOffset":520,
			"target":34962
		},
		{
			"buffer":0,
			"byteLength":6708,
			"byteOffset":7228,
			"target":34962
		},
		{
			"buffer":0,
			"byteLength":4472,
			"byteOffset":13936,
			"target":34962
		},
		{
			"buffer":0,
			"byteLength":5760,
			"byteOffset":18408,
			"target":34963
		},
		{
			"buffer":0,
			"byteLength":6708,
			"byteOffset":24168,
			"target":34962
		},
		{
			"buffer":0,
			"byteLength":6708,
			"byteOffset":30876,
			"target":34962
		},
		{
			"buffer":0,
			"byteLength":4472,
			"byteOffset":37584,
			"target":34962
		},
		{
			"buffer":0,
			"byteLength":6708,
			"byteOffset":42056,
			"target":34962
		},
		{
			"buffer":0,
			"byteLength":6708,
			"byteOffset":48764,
			"target":34962
		},
		{
			"buffer":0,
			"byteLength":4472,
			"byteOffset":55472,
			"target":34962
		},
		{
			"buffer":0,
			"byteLength":6708,
			"byteOffset":59944,
			"target":34962
		},
		{
			"buffer":0,
			"byteLength":6708,
			"byteOffset":66652,
			"target":34962
		},
		{
			"buffer":0,
			"byteLength":4472,
			"byteOffset":73360,
			"target":34962
		},
		{
			"buffer":0,
			"byteLength":6708,
			"byteOffset":77832,
			"target":34962
		},
		{
			"buffer":0,
			"byteLength":6708,
			"byteOffset":84540,
			"target":34962
		},
		{
			"buffer":0,
			"byteLength":4472,
			"byteOffset":91248,
			"target":34962
		}
	],
	"samplers":[
		{
			"magFilter":9729,
			"minFilter":9987
		}
	],
	"buffers":[
		{
			"byteLength":95720,
			"uri":"PBR.bin"
		}
	]
}
