{
	"asset":{
		"generator":"Khronos glTF Blender I/O v4.3.47",
		"version":"2.0"
	},
	"extensionsUsed":[
		"KHR_lights_punctual"
	],
	"extensionsRequired":[
		"KHR_lights_punctual"
	],
	"extensions":{
		"KHR_lights_punctual":{
			"lights":[
				{
					"color":[
						1,
						1,
						1
					],
					"intensity":54.35141306588226,
					"type":"point",
					"name":"Light"
				}
			]
		}
	},
	"scene":0,
	"scenes":[
		{
			"name":"Scene",
			"nodes":[
				0,
				1,
				2,
				3,
				4,
				5,
				6,
				7,
				8,
				9
			]
		}
	],
	"nodes":[
		{
			"mesh":0,
			"name":"Cube",
			"scale":[
				45.999210357666016,
				0.24359475076198578,
				44.01255798339844
			]
		},
		{
			"extensions":{
				"KHR_lights_punctual":{
					"light":0
				}
			},
			"name":"Light",
			"rotation":[
				-0.28416627645492554,
				0.7269423007965088,
				0.34203392267227173,
				0.5232754945755005
			],
			"translation":[
				2.632507801055908,
				21.409000396728516,
				-1.0054500102996826
			]
		},
		{
			"camera":0,
			"name":"Camera",
			"rotation":[
				-0.1796053647994995,
				0.564313530921936,
				0.12738417088985443,
				0.7956541180610657
			],
			"translation":[
				32.90888977050781,
				17.62830924987793,
				10.265790939331055
			]
		},
		{
			"mesh":1,
			"name":"Sphere",
			"translation":[
				1.724708080291748,
				2.3514914512634277,
				7.721519470214844
			]
		},
		{
			"mesh":2,
			"name":"Sphere.001",
			"translation":[
				8.083806991577148,
				2.3514914512634277,
				7.721519470214844
			]
		},
		{
			"mesh":3,
			"name":"Sphere.002",
			"translation":[
				-5.009702682495117,
				2.3514914512634277,
				7.721519470214844
			]
		},
		{
			"mesh":4,
			"name":"Sphere.003",
			"translation":[
				-5.009702682495117,
				2.3514914512634277,
				-7.853323936462402
			]
		},
		{
			"mesh":5,
			"name":"Sphere.004",
			"translation":[
				1.8297438621520996,
				2.3514914512634277,
				-7.853323936462402
			]
		},
		{
			"mesh":6,
			"name":"Sphere.005",
			"translation":[
				8.976985931396484,
				2.3514914512634277,
				-7.853323936462402
			]
		},
		{
			"mesh":7,
			"name":"Sphere.006",
			"translation":[
				12.463186264038086,
				2.3514914512634277,
				0.37069082260131836
			]
		}
	],
	"cameras":[
		{
			"name":"Camera",
			"perspective":{
				"aspectRatio":1.7777777777777777,
				"yfov":0.39959652046304894,
				"zfar":100,
				"znear":0.10000000149011612
			},
			"type":"perspective"
		}
	],
	"materials":[
		{
			"doubleSided":true,
			"name":"PlaneMaterial",
			"pbrMetallicRoughness":{
				"baseColorFactor":[
					0.07513001561164856,
					0.07513001561164856,
					0.07513001561164856,
					1
				],
				"metallicFactor":0,
				"roughnessFactor":0.5
			}
		},
		{
			"doubleSided":true,
			"name":"Stucco",
			"normalTexture":{
				"index":0
			},
			"pbrMetallicRoughness":{
				"baseColorTexture":{
					"index":1
				},
				"metallicRoughnessTexture":{
					"index":2
				}
			}
		},
		{
			"doubleSided":true,
			"name":"Wood",
			"normalTexture":{
				"index":3
			},
			"pbrMetallicRoughness":{
				"baseColorTexture":{
					"index":4
				},
				"metallicRoughnessTexture":{
					"index":5
				}
			}
		},
		{
			"doubleSided":true,
			"name":"Rocks",
			"normalTexture":{
				"index":6
			},
			"pbrMetallicRoughness":{
				"baseColorTexture":{
					"index":7
				},
				"metallicFactor":0,
				"metallicRoughnessTexture":{
					"index":8
				}
			}
		},
		{
			"doubleSided":true,
			"name":"Granite",
			"normalTexture":{
				"index":9
			},
			"pbrMetallicRoughness":{
				"baseColorTexture":{
					"index":10
				},
				"metallicRoughnessTexture":{
					"index":11
				}
			}
		},
		{
			"doubleSided":true,
			"name":"Hex",
			"normalTexture":{
				"index":12
			},
			"pbrMetallicRoughness":{
				"baseColorTexture":{
					"index":13
				},
				"metallicRoughnessTexture":{
					"index":14
				}
			}
		},
		{
			"alphaMode":"BLEND",
			"doubleSided":true,
			"name":"Leaves",
			"normalTexture":{
				"index":15
			},
			"pbrMetallicRoughness":{
				"baseColorTexture":{
					"index":16
				},
				"metallicFactor":0,
				"metallicRoughnessTexture":{
					"index":17
				}
			}
		},
		{
			"doubleSided":true,
			"name":"MetalCubes",
			"normalTexture":{
				"index":18
			},
			"pbrMetallicRoughness":{
				"baseColorTexture":{
					"index":19
				},
				"metallicRoughnessTexture":{
					"index":20
				}
			}
		}
	],
	"meshes":[
		{
			"name":"Cube",
			"primitives":[
				{
					"attributes":{
						"POSITION":0,
						"NORMAL":1,
						"TEXCOORD_0":2
					},
					"indices":3,
					"material":0
				}
			]
		},
		{
			"name":"Sphere",
			"primitives":[
				{
					"attributes":{
						"POSITION":4,
						"NORMAL":5,
						"TEXCOORD_0":6
					},
					"indices":7,
					"material":1
				}
			]
		},
		{
			"name":"Sphere.001",
			"primitives":[
				{
					"attributes":{
						"POSITION":8,
						"NORMAL":9,
						"TEXCOORD_0":10
					},
					"indices":7,
					"material":2
				}
			]
		},
		{
			"name":"Sphere.002",
			"primitives":[
				{
					"attributes":{
						"POSITION":11,
						"NORMAL":12,
						"TEXCOORD_0":13
					},
					"indices":7,
					"material":3
				}
			]
		},
		{
			"name":"Sphere.003",
			"primitives":[
				{
					"attributes":{
						"POSITION":14,
						"NORMAL":15,
						"TEXCOORD_0":16
					},
					"indices":7,
					"material":4
				}
			]
		},
		{
			"name":"Sphere.004",
			"primitives":[
				{
					"attributes":{
						"POSITION":17,
						"NORMAL":18,
						"TEXCOORD_0":19
					},
					"indices":7,
					"material":5
				}
			]
		},
		{
			"name":"Sphere.005",
			"primitives":[
				{
					"attributes":{
						"POSITION":20,
						"NORMAL":21,
						"TEXCOORD_0":22
					},
					"indices":7,
					"material":6
				}
			]
		},
		{
			"name":"Sphere.006",
			"primitives":[
				{
					"attributes":{
						"POSITION":23,
						"NORMAL":24,
						"TEXCOORD_0":25
					},
					"indices":7,
					"material":7
				}
			]
		}
	],
	"textures":[
		{
			"sampler":0,
			"source":0
		},
		{
			"sampler":0,
			"source":1
		},
		{
			"sampler":0,
			"source":2
		},
		{
			"sampler":0,
			"source":3
		},
		{
			"sampler":0,
			"source":4
		},
		{
			"sampler":0,
			"source":5
		},
		{
			"sampler":0,
			"source":6
		},
		{
			"sampler":0,
			"source":7
		},
		{
			"sampler":0,
			"source":8
		},
		{
			"sampler":0,
			"source":9
		},
		{
			"sampler":0,
			"source":10
		},
		{
			"sampler":0,
			"source":11
		},
		{
			"sampler":0,
			"source":12
		},
		{
			"sampler":0,
			"source":13
		},
		{
			"sampler":0,
			"source":14
		},
		{
			"sampler":0,
			"source":15
		},
		{
			"sampler":0,
			"source":16
		},
		{
			"sampler":0,
			"source":17
		},
		{
			"sampler":0,
			"source":18
		},
		{
			"sampler":0,
			"source":19
		},
		{
			"sampler":0,
			"source":20
		}
	],
	"images":[
		{
			"mimeType":"image/png",
			"name":"grainy_stucco_Normal-ogl",
			"uri":"grainy_stucco_Normal-ogl.png"
		},
		{
			"mimeType":"image/png",
			"name":"grainy_stucco_albedo",
			"uri":"grainy_stucco_albedo.png"
		},
		{
			"mimeType":"image/png",
			"name":"grainy_stucco_Metallic-grainy_stucco_Roughness",
			"uri":"grainy_stucco_Metallic-grainy_stucco_Roughness.png"
		},
		{
			"mimeType":"image/png",
			"name":"woodframe1-normal2",
			"uri":"woodframe1-normal2.png"
		},
		{
			"mimeType":"image/png",
			"name":"woodframe1b-albedo",
			"uri":"woodframe1b-albedo.png"
		},
		{
			"mimeType":"image/png",
			"name":"woodframe1-metalness-woodframe1-rough",
			"uri":"woodframe1-metalness-woodframe1-rough.png"
		},
		{
			"mimeType":"image/jpeg",
			"name":"Tiles108_2K-JPG_NormalGL",
			"uri":"Tiles108_2K-JPG_NormalGL.jpg"
		},
		{
			"mimeType":"image/jpeg",
			"name":"Tiles108_2K-JPG_Color",
			"uri":"Tiles108_2K-JPG_Color.jpg"
		},
		{
			"mimeType":"image/png",
			"name":"Tiles108_2K-JPG_Roughness",
			"uri":"Tiles108_2K-JPG_Roughness.png"
		},
		{
			"mimeType":"image/png",
			"name":"gray-polished-granite_normal-ogl",
			"uri":"gray-polished-granite_normal-ogl.png"
		},
		{
			"mimeType":"image/png",
			"name":"gray-polished-granite_albedo",
			"uri":"gray-polished-granite_albedo.png"
		},
		{
			"mimeType":"image/png",
			"name":"gray-polished-granite_metallic-gray-polished-granite_roughness",
			"uri":"gray-polished-granite_metallic-gray-polished-granite_roughness.png"
		},
		{
			"mimeType":"image/jpeg",
			"name":"ChristmasTreeOrnament008_2K-JPG_NormalGL",
			"uri":"ChristmasTreeOrnament008_2K-JPG_NormalGL.jpg"
		},
		{
			"mimeType":"image/jpeg",
			"name":"ChristmasTreeOrnament008_2K-JPG_Color",
			"uri":"ChristmasTreeOrnament008_2K-JPG_Color.jpg"
		},
		{
			"mimeType":"image/png",
			"name":"ChristmasTreeOrnament008_2K-JPG_Metalness-ChristmasTreeOrnament008_2K-JPG_Roughness",
			"uri":"ChristmasTreeOrnament008_2K-JPG_Metalness-ChristmasTreeOrnament008_2K-JPG_Roughness.png"
		},
		{
			"mimeType":"image/jpeg",
			"name":"RoofingTiles013D_2K-JPG_NormalGL",
			"uri":"RoofingTiles013D_2K-JPG_NormalGL.jpg"
		},
		{
			"mimeType":"image/png",
			"name":"RoofingTiles013D_2K-JPG_Color-RoofingTiles013D_2K-JPG_Opacity",
			"uri":"RoofingTiles013D_2K-JPG_Color-RoofingTiles013D_2K-JPG_Opacity.png"
		},
		{
			"mimeType":"image/png",
			"name":"RoofingTiles013D_2K-JPG_Roughness",
			"uri":"RoofingTiles013D_2K-JPG_Roughness.png"
		},
		{
			"mimeType":"image/jpeg",
			"name":"Metal049A_2K-JPG_NormalGL",
			"uri":"Metal049A_2K-JPG_NormalGL.jpg"
		},
		{
			"mimeType":"image/jpeg",
			"name":"Metal049A_2K-JPG_Color",
			"uri":"Metal049A_2K-JPG_Color.jpg"
		},
		{
			"mimeType":"image/png",
			"name":"Metal049A_2K-JPG_Metalness-Metal049A_2K-JPG_Roughness",
			"uri":"Metal049A_2K-JPG_Metalness-Metal049A_2K-JPG_Roughness.png"
		}
	],
	"accessors":[
		{
			"bufferView":0,
			"componentType":5126,
			"count":24,
			"max":[
				1,
				1,
				1
			],
			"min":[
				-1,
				-1,
				-1
			],
			"type":"VEC3"
		},
		{
			"bufferView":1,
			"componentType":5126,
			"count":24,
			"type":"VEC3"
		},
		{
			"bufferView":2,
			"componentType":5126,
			"count":24,
			"type":"VEC2"
		},
		{
			"bufferView":3,
			"componentType":5123,
			"count":36,
			"type":"SCALAR"
		},
		{
			"bufferView":4,
			"componentType":5126,
			"count":1984,
			"max":[
				0.9999997019767761,
				1,
				0.9999993443489075
			],
			"min":[
				-0.9999990463256836,
				-1,
				-1
			],
			"type":"VEC3"
		},
		{
			"bufferView":5,
			"componentType":5126,
			"count":1984,
			"type":"VEC3"
		},
		{
			"bufferView":6,
			"componentType":5126,
			"count":1984,
			"type":"VEC2"
		},
		{
			"bufferView":7,
			"componentType":5123,
			"count":2880,
			"type":"SCALAR"
		},
		{
			"bufferView":8,
			"componentType":5126,
			"count":1984,
			"max":[
				0.9999997019767761,
				1,
				0.9999993443489075
			],
			"min":[
				-0.9999990463256836,
				-1,
				-1
			],
			"type":"VEC3"
		},
		{
			"bufferView":9,
			"componentType":5126,
			"count":1984,
			"type":"VEC3"
		},
		{
			"bufferView":10,
			"componentType":5126,
			"count":1984,
			"type":"VEC2"
		},
		{
			"bufferView":11,
			"componentType":5126,
			"count":1984,
			"max":[
				0.9999997019767761,
				1,
				0.9999993443489075
			],
			"min":[
				-0.9999990463256836,
				-1,
				-1
			],
			"type":"VEC3"
		},
		{
			"bufferView":12,
			"componentType":5126,
			"count":1984,
			"type":"VEC3"
		},
		{
			"bufferView":13,
			"componentType":5126,
			"count":1984,
			"type":"VEC2"
		},
		{
			"bufferView":14,
			"componentType":5126,
			"count":1984,
			"max":[
				0.9999997019767761,
				1,
				0.9999993443489075
			],
			"min":[
				-0.9999990463256836,
				-1,
				-1
			],
			"type":"VEC3"
		},
		{
			"bufferView":15,
			"componentType":5126,
			"count":1984,
			"type":"VEC3"
		},
		{
			"bufferView":16,
			"componentType":5126,
			"count":1984,
			"type":"VEC2"
		},
		{
			"bufferView":17,
			"componentType":5126,
			"count":1984,
			"max":[
				0.9999997019767761,
				1,
				0.9999993443489075
			],
			"min":[
				-0.9999990463256836,
				-1,
				-1
			],
			"type":"VEC3"
		},
		{
			"bufferView":18,
			"componentType":5126,
			"count":1984,
			"type":"VEC3"
		},
		{
			"bufferView":19,
			"componentType":5126,
			"count":1984,
			"type":"VEC2"
		},
		{
			"bufferView":20,
			"componentType":5126,
			"count":1984,
			"max":[
				0.9999997019767761,
				1,
				0.9999993443489075
			],
			"min":[
				-0.9999990463256836,
				-1,
				-1
			],
			"type":"VEC3"
		},
		{
			"bufferView":21,
			"componentType":5126,
			"count":1984,
			"type":"VEC3"
		},
		{
			"bufferView":22,
			"componentType":5126,
			"count":1984,
			"type":"VEC2"
		},
		{
			"bufferView":23,
			"componentType":5126,
			"count":1984,
			"max":[
				0.9999997019767761,
				1,
				0.9999993443489075
			],
			"min":[
				-0.9999990463256836,
				-1,
				-1
			],
			"type":"VEC3"
		},
		{
			"bufferView":24,
			"componentType":5126,
			"count":1984,
			"type":"VEC3"
		},
		{
			"bufferView":25,
			"componentType":5126,
			"count":1984,
			"type":"VEC2"
		}
	],
	"bufferViews":[
		{
			"buffer":0,
			"byteLength":288,
			"byteOffset":0,
			"target":34962
		},
		{
			"buffer":0,
			"byteLength":288,
			"byteOffset":288,
			"target":34962
		},
		{
			"buffer":0,
			"byteLength":192,
			"byteOffset":576,
			"target":34962
		},
		{
			"buffer":0,
			"byteLength":72,
			"byteOffset":768,
			"target":34963
		},
		{
			"buffer":0,
			"byteLength":23808,
			"byteOffset":840,
			"target":34962
		},
		{
			"buffer":0,
			"byteLength":23808,
			"byteOffset":24648,
			"target":34962
		},
		{
			"buffer":0,
			"byteLength":15872,
			"byteOffset":48456,
			"target":34962
		},
		{
			"buffer":0,
			"byteLength":5760,
			"byteOffset":64328,
			"target":34963
		},
		{
			"buffer":0,
			"byteLength":23808,
			"byteOffset":70088,
			"target":34962
		},
		{
			"buffer":0,
			"byteLength":23808,
			"byteOffset":93896,
			"target":34962
		},
		{
			"buffer":0,
			"byteLength":15872,
			"byteOffset":117704,
			"target":34962
		},
		{
			"buffer":0,
			"byteLength":23808,
			"byteOffset":133576,
			"target":34962
		},
		{
			"buffer":0,
			"byteLength":23808,
			"byteOffset":157384,
			"target":34962
		},
		{
			"buffer":0,
			"byteLength":15872,
			"byteOffset":181192,
			"target":34962
		},
		{
			"buffer":0,
			"byteLength":23808,
			"byteOffset":197064,
			"target":34962
		},
		{
			"buffer":0,
			"byteLength":23808,
			"byteOffset":220872,
			"target":34962
		},
		{
			"buffer":0,
			"byteLength":15872,
			"byteOffset":244680,
			"target":34962
		},
		{
			"buffer":0,
			"byteLength":23808,
			"byteOffset":260552,
			"target":34962
		},
		{
			"buffer":0,
			"byteLength":23808,
			"byteOffset":284360,
			"target":34962
		},
		{
			"buffer":0,
			"byteLength":15872,
			"byteOffset":308168,
			"target":34962
		},
		{
			"buffer":0,
			"byteLength":23808,
			"byteOffset":324040,
			"target":34962
		},
		{
			"buffer":0,
			"byteLength":23808,
			"byteOffset":347848,
			"target":34962
		},
		{
			"buffer":0,
			"byteLength":15872,
			"byteOffset":371656,
			"target":34962
		},
		{
			"buffer":0,
			"byteLength":23808,
			"byteOffset":387528,
			"target":34962
		},
		{
			"buffer":0,
			"byteLength":23808,
			"byteOffset":411336,
			"target":34962
		},
		{
			"buffer":0,
			"byteLength":15872,
			"byteOffset":435144,
			"target":34962
		}
	],
	"samplers":[
		{
			"magFilter":9729,
			"minFilter":9987
		}
	],
	"buffers":[
		{
			"byteLength":451016,
			"uri":"PBR.bin"
		}
	]
}
